<?xml version="1.0" standalone="no"?>
<!DOCTYPE svg PUBLIC "-//W3C//DTD SVG 20010904//EN"
 "http://www.w3.org/TR/2001/REC-SVG-20010904/DTD/svg10.dtd">
<svg version="1.0" xmlns="http://www.w3.org/2000/svg"
 width="432.000000pt" height="476.000000pt" viewBox="0 0 432.000000 476.000000"
 preserveAspectRatio="xMidYMid meet">

<g transform="translate(0.000000,476.000000) scale(0.100000,-0.100000)"
fill="#000000" stroke="none">
<path d="M1240 4533 l0 -228 -47 -127 -48 -128 -390 0 -390 0 -149 -687 c-81
-379 -148 -694 -149 -702 -2 -11 58 -26 258 -64 143 -27 261 -50 262 -51 1 -1
-71 -180 -160 -399 l-162 -397 -35 -9 c-19 -5 -79 -19 -132 -31 l-98 -22 0
-349 0 -349 570 0 570 0 0 -100 0 -100 -73 0 c-41 0 -108 -3 -150 -6 l-77 -7
0 -378 0 -379 1020 0 1020 0 0 379 0 378 -77 7 c-42 3 -107 6 -145 6 l-68 0 0
100 0 100 765 0 765 0 0 365 c0 201 -1 365 -2 365 -62 5 -250 29 -253 32 -6 5
-108 298 -210 598 -46 135 -86 253 -90 262 -5 13 2 18 37 25 32 6 44 14 45 28
2 11 -59 326 -135 700 l-138 680 -146 3 -147 3 -35 107 -36 107 0 248 0 247
-885 0 -885 0 0 -227z m1430 102 c0 -42 -2 -46 -35 -59 -65 -28 -66 -24 75
-460 49 -154 90 -283 90 -288 0 -4 -184 -8 -408 -8 l-408 0 -59 180 -59 179
-38 -107 c-21 -59 -50 -140 -64 -179 l-26 -73 -160 0 c-148 0 -160 1 -153 18
88 225 219 588 228 628 9 45 8 56 -7 78 -9 15 -28 31 -42 36 -21 8 -24 16 -24
55 l0 45 545 0 545 0 0 -45z m505 -1310 c62 -302 81 -412 72 -417 -7 -4 -24
-8 -38 -8 -23 0 -30 9 -57 71 -92 208 -244 352 -442 421 -76 26 -235 48 -357
48 l-103 0 0 -425 c0 -234 -2 -425 -5 -425 -2 0 -29 9 -59 21 -171 64 -353 99
-553 106 l-153 6 0 360 0 360 -157 -6 c-234 -9 -362 -41 -492 -124 -114 -73
-228 -224 -267 -355 l-18 -60 -34 6 c-19 3 -37 8 -40 11 -5 4 159 788 174 833
3 10 12 7 36 -10 l33 -23 1124 -3 c1001 -2 1130 -1 1172 13 26 9 53 23 61 32
12 15 13 14 17 -3 1 -10 41 -203 86 -429z m-1813 -303 c-4 -273 -7 -302 -27
-362 l-22 -66 86 9 c289 30 626 -34 920 -174 68 -33 126 -58 127 -56 2 2 -17
66 -41 142 l-45 140 0 334 0 334 113 -6 c194 -10 321 -62 435 -181 76 -79 125
-159 172 -283 28 -72 35 -83 56 -83 13 0 24 -2 24 -3 0 -26 381 -1120 407
-1170 42 -80 116 -151 170 -164 37 -8 38 -10 41 -56 l3 -47 -650 0 -651 0 0
45 c0 41 2 45 28 50 86 18 151 76 173 157 10 39 9 41 -46 113 -185 242 -457
415 -775 492 -188 46 -488 42 -661 -7 l-37 -10 -66 -193 c-36 -105 -73 -221
-82 -257 -22 -84 -23 -177 -4 -215 19 -38 69 -71 119 -79 41 -6 41 -6 41 -51
l0 -45 -416 0 -415 0 3 47 c3 45 4 47 46 61 56 18 151 107 197 182 20 32 49
91 66 132 27 63 482 1287 557 1495 25 70 26 72 61 75 20 2 50 1 67 0 l31 -4
-5 -296z m377 -928 c134 -19 288 -70 413 -136 l97 -52 3 -610 c3 -602 4 -612
26 -677 35 -106 89 -145 225 -164 l47 -6 0 -45 0 -44 -685 0 -685 0 0 44 0 44
53 7 c73 9 149 46 180 86 14 19 33 59 43 89 17 51 19 112 22 768 l3 712 76 0
c41 0 123 -7 182 -16z"/>
</g>
</svg>
